<?xml version="1.0" encoding="UTF-8" standalone="no"?>
<!DOCTYPE svg PUBLIC "-//W3C//DTD SVG 1.1//EN"
 "http://www.w3.org/Graphics/SVG/1.1/DTD/svg11.dtd">
<!-- Generated by graphviz version 2.43.0 (0)
 -->
<!-- Title: %3 Pages: 1 -->
<svg width="609pt" height="216pt"
 viewBox="0.00 0.00 609.28 216.00" xmlns="http://www.w3.org/2000/svg" xmlns:xlink="http://www.w3.org/1999/xlink">
<g id="graph0" class="graph" transform="scale(1 1) rotate(0) translate(4 212)">
<title>%3</title>
<polygon fill="white" stroke="transparent" points="-4,4 -4,-212 605.28,-212 605.28,4 -4,4"/>
<g id="clust1" class="cluster">
<title>cluster_G1</title>
</g>
<!-- S -->
<g id="node1" class="node">
<title>S</title>
<ellipse fill="none" stroke="black" cx="36.4" cy="-68" rx="36.29" ry="18"/>
<text text-anchor="middle" x="36.4" y="-64.3" font-family="Times,serif" font-size="14.00">begin</text>
</g>
<!-- L1 -->
<g id="node2" class="node">
<title>L1</title>
<ellipse fill="none" stroke="black" cx="145.19" cy="-68" rx="36.29" ry="18"/>
<text text-anchor="middle" x="145.19" y="-64.3" font-family="Times,serif" font-size="14.00">letter</text>
</g>
<!-- S&#45;&gt;L1 -->
<g id="edge1" class="edge">
<title>S&#45;&gt;L1</title>
<path fill="none" stroke="black" d="M72.96,-68C81.15,-68 89.98,-68 98.54,-68"/>
<polygon fill="black" stroke="black" points="98.78,-71.5 108.78,-68 98.78,-64.5 98.78,-71.5"/>
</g>
<!-- C1 -->
<g id="node3" class="node">
<title>C1</title>
<ellipse fill="none" stroke="black" cx="221.09" cy="-137" rx="3.5" ry="3.5"/>
</g>
<!-- L1&#45;&gt;C1 -->
<g id="edge3" class="edge">
<title>L1&#45;&gt;C1</title>
<path fill="none" stroke="black" d="M163.33,-84C177.86,-97.57 198.2,-116.57 210.17,-127.74"/>
<polygon fill="black" stroke="black" points="208.01,-130.52 217.71,-134.78 212.79,-125.4 208.01,-130.52"/>
</g>
<!-- E -->
<g id="node11" class="node">
<title>E</title>
<ellipse fill="none" stroke="black" cx="573.33" cy="-50" rx="27.9" ry="18"/>
<text text-anchor="middle" x="573.33" y="-46.3" font-family="Times,serif" font-size="14.00">end</text>
</g>
<!-- L1&#45;&gt;E -->
<g id="edge2" class="edge">
<title>L1&#45;&gt;E</title>
<path fill="none" stroke="black" d="M161.61,-51.68C173.59,-39.98 191.22,-24.78 209.59,-16 241.12,-0.93 251.63,0 286.59,0 286.59,0 286.59,0 430.98,0 470.04,0 480.95,-1.93 517.38,-16 527.17,-19.78 537.14,-25.34 545.85,-30.86"/>
<polygon fill="black" stroke="black" points="544.14,-33.93 554.41,-36.54 548.01,-28.1 544.14,-33.93"/>
</g>
<!-- U -->
<g id="node4" class="node">
<title>U</title>
<ellipse fill="none" stroke="black" cx="287.59" cy="-46" rx="27" ry="18"/>
<text text-anchor="middle" x="287.59" y="-42.3" font-family="Times,serif" font-size="14.00">_</text>
</g>
<!-- C1&#45;&gt;U -->
<g id="edge9" class="edge">
<title>C1&#45;&gt;U</title>
<path fill="none" stroke="black" d="M223.49,-134.18C228.14,-124.95 243.7,-95.02 260.59,-73 261.8,-71.41 263.1,-69.82 264.45,-68.24"/>
<polygon fill="black" stroke="black" points="267.26,-70.35 271.38,-60.59 262.07,-65.65 267.26,-70.35"/>
</g>
<!-- I1 -->
<!-- C1&#45;&gt;I1 -->
<!-- C2 -->
<g id="node6" class="node">
<title>C2</title>
<ellipse fill="none" stroke="black" cx="354.09" cy="-100" rx="3.5" ry="3.5"/>
</g>
<!-- C1&#45;&gt;C2 -->
<g id="edge13" class="edge">
<title>C1&#45;&gt;C2</title>
<path fill="none" stroke="black" d="M224.77,-137.19C236.11,-137.87 281.02,-139.62 314.59,-127 325.3,-122.97 335.83,-115.25 343.17,-109.1"/>
<polygon fill="black" stroke="black" points="345.79,-111.45 350.9,-102.16 341.11,-106.23 345.79,-111.45"/>
</g>
<!-- U&#45;&gt;C2 -->
<g id="edge10" class="edge">
<title>U&#45;&gt;C2</title>
<path fill="none" stroke="black" d="M305.2,-59.91C317.07,-69.84 332.67,-82.9 342.78,-91.37"/>
<polygon fill="black" stroke="black" points="340.82,-94.29 350.73,-98.03 345.31,-88.93 340.82,-94.29"/>
</g>
<!-- I1&#45;&gt;C2 -->
<!-- D -->
<g id="node7" class="node">
<title>D</title>
<ellipse fill="none" stroke="black" cx="429.98" cy="-46" rx="32.49" ry="18"/>
<text text-anchor="middle" x="429.98" y="-42.3" font-family="Times,serif" font-size="14.00">digit</text>
</g>
<!-- C2&#45;&gt;D -->
<g id="edge11" class="edge">
<title>C2&#45;&gt;D</title>
<path fill="none" stroke="black" d="M357.55,-98.2C364.39,-93.2 384.28,-78.67 401.34,-66.2"/>
<polygon fill="black" stroke="black" points="403.41,-69.02 409.42,-60.3 399.28,-63.37 403.41,-69.02"/>
</g>
<!-- L2 -->
<g id="node8" class="node">
<title>L2</title>
<ellipse fill="none" stroke="black" cx="429.98" cy="-100" rx="36.29" ry="18"/>
<text text-anchor="middle" x="429.98" y="-96.3" font-family="Times,serif" font-size="14.00">letter</text>
</g>
<!-- C2&#45;&gt;L2 -->
<g id="edge14" class="edge">
<title>C2&#45;&gt;L2</title>
<path fill="none" stroke="black" d="M357.89,-100C362.54,-100 372.39,-100 383.33,-100"/>
<polygon fill="black" stroke="black" points="383.56,-103.5 393.56,-100 383.56,-96.5 383.56,-103.5"/>
</g>
<!-- I2 -->
<!-- C2&#45;&gt;I2 -->
<!-- C3 -->
<g id="node10" class="node">
<title>C3</title>
<ellipse fill="none" stroke="black" cx="505.88" cy="-100" rx="3.5" ry="3.5"/>
</g>
<!-- D&#45;&gt;C3 -->
<g id="edge12" class="edge">
<title>D&#45;&gt;C3</title>
<path fill="none" stroke="black" d="M450.4,-60.19C464.54,-70.52 483.15,-84.12 494.55,-92.45"/>
<polygon fill="black" stroke="black" points="492.52,-95.3 502.66,-98.38 496.65,-89.65 492.52,-95.3"/>
</g>
<!-- L2&#45;&gt;C3 -->
<g id="edge15" class="edge">
<title>L2&#45;&gt;C3</title>
<path fill="none" stroke="black" d="M466.63,-100C475.75,-100 484.96,-100 492.06,-100"/>
<polygon fill="black" stroke="black" points="492.31,-103.5 502.31,-100 492.31,-96.5 492.31,-103.5"/>
</g>
<!-- I2&#45;&gt;C3 -->
<!-- C3&#45;&gt;C1 -->
<g id="edge16" class="edge">
<title>C3&#45;&gt;C1</title>
<path fill="none" stroke="black" d="M504.53,-103.27C502.96,-116.03 495.34,-162.7 466.38,-181 388.46,-230.24 270.23,-166.49 233.43,-144.18"/>
<polygon fill="black" stroke="black" points="235.09,-141.09 224.75,-138.76 231.38,-147.03 235.09,-141.09"/>
</g>
<!-- C3&#45;&gt;E -->
<g id="edge4" class="edge">
<title>C3&#45;&gt;E</title>
<path fill="none" stroke="black" d="M509.06,-98.34C514.97,-93.82 531.88,-80.9 546.74,-69.55"/>
<polygon fill="black" stroke="black" points="548.87,-72.33 554.69,-63.47 544.62,-66.76 548.87,-72.33"/>
</g>
</g>
</svg>
