<?xml version="1.0" encoding="UTF-8" standalone="no"?>
<!DOCTYPE svg PUBLIC "-//W3C//DTD SVG 1.1//EN"
 "http://www.w3.org/Graphics/SVG/1.1/DTD/svg11.dtd">
<!-- Generated by graphviz version 2.43.0 (0)
 -->
<!-- Title: %3 Pages: 1 -->
<svg width="462pt" height="106pt"
 viewBox="0.00 0.00 462.00 106.00" xmlns="http://www.w3.org/2000/svg" xmlns:xlink="http://www.w3.org/1999/xlink">
<g id="graph0" class="graph" transform="scale(1 1) rotate(0) translate(4 102)">
<title>%3</title>
<polygon fill="white" stroke="transparent" points="-4,4 -4,-102 458,-102 458,4 -4,4"/>
<!-- 1 -->
<g id="node1" class="node">
<title>1</title>
<ellipse fill="none" stroke="black" cx="27" cy="-72" rx="27" ry="18"/>
<text text-anchor="middle" x="27" y="-68.3" font-family="Times,serif" font-size="14.00">1</text>
</g>
<!-- 7 -->
<g id="node2" class="node">
<title>7</title>
<ellipse fill="none" stroke="black" cx="127" cy="-45" rx="27" ry="18"/>
<text text-anchor="middle" x="127" y="-41.3" font-family="Times,serif" font-size="14.00">7</text>
</g>
<!-- 1&#45;&#45;7 -->
<g id="edge1" class="edge">
<title>1&#45;&#45;7</title>
<path fill="none" stroke="black" d="M52.22,-65.33C67.3,-61.17 86.63,-55.85 101.71,-51.69"/>
<text text-anchor="middle" x="77" y="-63.8" font-family="Times,serif" font-size="14.00">6</text>
</g>
<!-- 3 -->
<g id="node4" class="node">
<title>3</title>
<ellipse fill="none" stroke="black" cx="227" cy="-45" rx="27" ry="18"/>
<text text-anchor="middle" x="227" y="-41.3" font-family="Times,serif" font-size="14.00">3</text>
</g>
<!-- 7&#45;&#45;3 -->
<g id="edge3" class="edge">
<title>7&#45;&#45;3</title>
<path fill="none" stroke="black" d="M154,-45C168.18,-45 185.68,-45 199.87,-45"/>
<text text-anchor="middle" x="177" y="-48.8" font-family="Times,serif" font-size="14.00">4</text>
</g>
<!-- 2 -->
<g id="node3" class="node">
<title>2</title>
<ellipse fill="none" stroke="black" cx="27" cy="-18" rx="27" ry="18"/>
<text text-anchor="middle" x="27" y="-14.3" font-family="Times,serif" font-size="14.00">2</text>
</g>
<!-- 2&#45;&#45;7 -->
<g id="edge2" class="edge">
<title>2&#45;&#45;7</title>
<path fill="none" stroke="black" d="M52.22,-24.67C67.3,-28.83 86.63,-34.15 101.71,-38.31"/>
<text text-anchor="middle" x="77" y="-36.8" font-family="Times,serif" font-size="14.00">5</text>
</g>
<!-- 5 -->
<g id="node5" class="node">
<title>5</title>
<ellipse fill="none" stroke="black" cx="327" cy="-80" rx="27" ry="18"/>
<text text-anchor="middle" x="327" y="-76.3" font-family="Times,serif" font-size="14.00">5</text>
</g>
<!-- 3&#45;&#45;5 -->
<g id="edge4" class="edge">
<title>3&#45;&#45;5</title>
<path fill="none" stroke="black" d="M251.22,-53.29C266.85,-58.87 287.36,-66.2 302.94,-71.77"/>
<text text-anchor="middle" x="277" y="-67.8" font-family="Times,serif" font-size="14.00">2</text>
</g>
<!-- 6 -->
<g id="node6" class="node">
<title>6</title>
<ellipse fill="none" stroke="black" cx="327" cy="-26" rx="27" ry="18"/>
<text text-anchor="middle" x="327" y="-22.3" font-family="Times,serif" font-size="14.00">6</text>
</g>
<!-- 3&#45;&#45;6 -->
<g id="edge5" class="edge">
<title>3&#45;&#45;6</title>
<path fill="none" stroke="black" d="M252.61,-39.14C258.92,-37.71 265.7,-36.24 272,-35 281.23,-33.18 291.4,-31.43 300.4,-29.95"/>
<text text-anchor="middle" x="277" y="-38.8" font-family="Times,serif" font-size="14.00">3</text>
</g>
<!-- 4 -->
<g id="node7" class="node">
<title>4</title>
<ellipse fill="none" stroke="black" cx="427" cy="-80" rx="27" ry="18"/>
<text text-anchor="middle" x="427" y="-76.3" font-family="Times,serif" font-size="14.00">4</text>
</g>
<!-- 5&#45;&#45;4 -->
<g id="edge6" class="edge">
<title>5&#45;&#45;4</title>
<path fill="none" stroke="black" d="M354,-80C368.18,-80 385.68,-80 399.87,-80"/>
<text text-anchor="middle" x="377" y="-83.8" font-family="Times,serif" font-size="14.00">1</text>
</g>
</g>
</svg>
