<?xml version="1.0" encoding="UTF-8" standalone="no"?>
<!DOCTYPE svg PUBLIC "-//W3C//DTD SVG 1.1//EN"
 "http://www.w3.org/Graphics/SVG/1.1/DTD/svg11.dtd">
<!-- Generated by graphviz version 2.43.0 (0)
 -->
<!-- Title: %3 Pages: 1 -->
<svg width="602pt" height="206pt"
 viewBox="0.00 0.00 602.00 206.00" xmlns="http://www.w3.org/2000/svg" xmlns:xlink="http://www.w3.org/1999/xlink">
<g id="graph0" class="graph" transform="scale(1 1) rotate(0) translate(4 202)">
<title>%3</title>
<polygon fill="white" stroke="transparent" points="-4,4 -4,-202 598,-202 598,4 -4,4"/>
<!-- 1 -->
<g id="node1" class="node">
<title>1</title>
<ellipse fill="none" stroke="black" cx="117" cy="-72" rx="27" ry="18"/>
<text text-anchor="middle" x="117" y="-68.3" font-family="Times,serif" font-size="14.00"> </text>
</g>
<!-- 2 -->
<g id="node2" class="node">
<title>2</title>
<ellipse fill="none" stroke="black" cx="207" cy="-126" rx="27" ry="18"/>
<text text-anchor="middle" x="207" y="-122.3" font-family="Times,serif" font-size="14.00"> </text>
</g>
<!-- 1&#45;&#45;2 -->
<g id="edge1" class="edge">
<title>1&#45;&#45;2</title>
<path fill="none" stroke="black" d="M137.53,-83.98C152.11,-92.93 171.95,-105.11 186.52,-114.05"/>
</g>
<!-- 8 -->
<g id="node8" class="node">
<title>8</title>
<ellipse fill="none" stroke="black" cx="207" cy="-72" rx="27" ry="18"/>
<text text-anchor="middle" x="207" y="-68.3" font-family="Times,serif" font-size="14.00"> </text>
</g>
<!-- 1&#45;&#45;8 -->
<g id="edge7" class="edge">
<title>1&#45;&#45;8</title>
<path fill="none" stroke="black" d="M144.4,-72C155.64,-72 168.72,-72 179.92,-72"/>
</g>
<!-- 10 -->
<g id="node10" class="node">
<title>10</title>
<ellipse fill="none" stroke="black" cx="207" cy="-18" rx="27" ry="18"/>
<text text-anchor="middle" x="207" y="-14.3" font-family="Times,serif" font-size="14.00"> </text>
</g>
<!-- 1&#45;&#45;10 -->
<g id="edge9" class="edge">
<title>1&#45;&#45;10</title>
<path fill="none" stroke="black" d="M137.53,-60.02C152.11,-51.07 171.95,-38.89 186.52,-29.95"/>
</g>
<!-- 3 -->
<g id="node3" class="node">
<title>3</title>
<ellipse fill="none" stroke="black" cx="297" cy="-153" rx="27" ry="18"/>
<text text-anchor="middle" x="297" y="-149.3" font-family="Times,serif" font-size="14.00"> </text>
</g>
<!-- 2&#45;&#45;3 -->
<g id="edge2" class="edge">
<title>2&#45;&#45;3</title>
<path fill="none" stroke="black" d="M232.05,-133.38C244.57,-137.22 259.82,-141.9 272.29,-145.72"/>
</g>
<!-- 13 -->
<g id="node13" class="node">
<title>13</title>
<ellipse fill="none" stroke="black" cx="297" cy="-99" rx="27" ry="18"/>
<text text-anchor="middle" x="297" y="-95.3" font-family="Times,serif" font-size="14.00"> </text>
</g>
<!-- 2&#45;&#45;13 -->
<g id="edge12" class="edge">
<title>2&#45;&#45;13</title>
<path fill="none" stroke="black" d="M232.05,-118.62C244.57,-114.78 259.82,-110.1 272.29,-106.28"/>
</g>
<!-- 4 -->
<g id="node4" class="node">
<title>4</title>
<ellipse fill="none" stroke="black" cx="387" cy="-153" rx="27" ry="18"/>
<text text-anchor="middle" x="387" y="-149.3" font-family="Times,serif" font-size="14.00"> </text>
</g>
<!-- 3&#45;&#45;4 -->
<g id="edge3" class="edge">
<title>3&#45;&#45;4</title>
<path fill="none" stroke="black" d="M324.4,-153C335.64,-153 348.72,-153 359.92,-153"/>
</g>
<!-- 5 -->
<g id="node5" class="node">
<title>5</title>
<ellipse fill="none" stroke="black" cx="477" cy="-180" rx="27" ry="18"/>
<text text-anchor="middle" x="477" y="-176.3" font-family="Times,serif" font-size="14.00"> </text>
</g>
<!-- 4&#45;&#45;5 -->
<g id="edge4" class="edge">
<title>4&#45;&#45;5</title>
<path fill="none" stroke="black" d="M412.05,-160.38C424.57,-164.22 439.82,-168.9 452.29,-172.72"/>
</g>
<!-- 14 -->
<g id="node14" class="node">
<title>14</title>
<ellipse fill="none" stroke="black" cx="477" cy="-126" rx="27" ry="18"/>
<text text-anchor="middle" x="477" y="-122.3" font-family="Times,serif" font-size="14.00"> </text>
</g>
<!-- 4&#45;&#45;14 -->
<g id="edge13" class="edge">
<title>4&#45;&#45;14</title>
<path fill="none" stroke="black" d="M412.05,-145.62C424.57,-141.78 439.82,-137.1 452.29,-133.28"/>
</g>
<!-- 6 -->
<g id="node6" class="node">
<title>6</title>
<ellipse fill="none" stroke="black" cx="567" cy="-180" rx="27" ry="18"/>
<text text-anchor="middle" x="567" y="-176.3" font-family="Times,serif" font-size="14.00"> </text>
</g>
<!-- 5&#45;&#45;6 -->
<g id="edge5" class="edge">
<title>5&#45;&#45;6</title>
<path fill="none" stroke="black" d="M504.4,-180C515.64,-180 528.72,-180 539.92,-180"/>
</g>
<!-- 7 -->
<g id="node7" class="node">
<title>7</title>
<ellipse fill="none" stroke="black" cx="27" cy="-72" rx="27" ry="18"/>
<text text-anchor="middle" x="27" y="-68.3" font-family="Times,serif" font-size="14.00"> </text>
</g>
<!-- 7&#45;&#45;1 -->
<g id="edge6" class="edge">
<title>7&#45;&#45;1</title>
<path fill="none" stroke="black" d="M54.4,-72C65.64,-72 78.72,-72 89.92,-72"/>
</g>
<!-- 9 -->
<g id="node9" class="node">
<title>9</title>
<ellipse fill="none" stroke="black" cx="27" cy="-18" rx="27" ry="18"/>
<text text-anchor="middle" x="27" y="-14.3" font-family="Times,serif" font-size="14.00"> </text>
</g>
<!-- 9&#45;&#45;1 -->
<g id="edge8" class="edge">
<title>9&#45;&#45;1</title>
<path fill="none" stroke="black" d="M47.53,-29.98C62.11,-38.93 81.95,-51.11 96.52,-60.05"/>
</g>
<!-- 11 -->
<g id="node11" class="node">
<title>11</title>
<ellipse fill="none" stroke="black" cx="27" cy="-126" rx="27" ry="18"/>
<text text-anchor="middle" x="27" y="-122.3" font-family="Times,serif" font-size="14.00"> </text>
</g>
<!-- 12 -->
<g id="node12" class="node">
<title>12</title>
<ellipse fill="none" stroke="black" cx="117" cy="-126" rx="27" ry="18"/>
<text text-anchor="middle" x="117" y="-122.3" font-family="Times,serif" font-size="14.00"> </text>
</g>
<!-- 11&#45;&#45;12 -->
<g id="edge10" class="edge">
<title>11&#45;&#45;12</title>
<path fill="none" stroke="black" d="M54.4,-126C65.64,-126 78.72,-126 89.92,-126"/>
</g>
<!-- 12&#45;&#45;2 -->
<g id="edge11" class="edge">
<title>12&#45;&#45;2</title>
<path fill="none" stroke="black" d="M144.4,-126C155.64,-126 168.72,-126 179.92,-126"/>
</g>
</g>
</svg>
