<svg version="1.1"
     baseProfile="full"
     width="640"
     viewBox="0 0 2350.0 550.0"
     preserveAspectRatio="xMinYMin meet"
     xmlns="http://www.w3.org/2000/svg">
  <g font-family="sans-serif"
     font-size="40"
     dominant-baseline="central"
     text-anchor="middle">
    <g>
      <text x="100" y="30.000002">1</text>
      <text x="200" y="30.000002">2</text>
      <text x="300" y="30.000002">3</text>
      <text x="400" y="30.000002">4</text>
      <text x="500" y="30.000002">5</text>
      <text x="600" y="30.000002">6</text>
      <text x="700" y="30.000002">7</text>
      <text x="800" y="30.000002">8</text>
      <text x="900" y="30.000002">9</text>
      <text x="1000" y="30.000002">10</text>
      <text x="1100" y="30.000002">11</text>
      <text x="1200" y="30.000002">12</text>
      <text x="1300" y="30.000002">13</text>
      <text x="1400" y="30.000002">14</text>
      <text x="1500" y="30.000002">15</text>
      <text x="1600" y="30.000002">16</text>
      <text x="1700" y="30.000002">17</text>
      <text x="1800" y="30.000002">18</text>
      <text x="1900" y="30.000002">19</text>
      <text x="2000" y="30.000002">20</text>
      <text x="2100" y="30.000002">21</text>
      <text x="2200" y="30.000002">22</text>
      <text x="2300" y="30.000002">23</text>
      <text x="30.000002" y="100">1</text>
      <text x="30.000002" y="200">2</text>
      <text x="30.000002" y="300">3</text>
      <text x="30.000002" y="400">4</text>
      <text x="30.000002" y="500">5</text>
    </g>
    <g stroke="black">
      <line x1="100" x2="100" y1="100" y2="500" />
      <line x1="200" x2="200" y1="100" y2="500" />
      <line x1="300" x2="300" y1="100" y2="500" />
      <line x1="400" x2="400" y1="100" y2="500" />
      <line x1="500" x2="500" y1="100" y2="500" />
      <line x1="600" x2="600" y1="100" y2="500" />
      <line x1="700" x2="700" y1="100" y2="500" />
      <line x1="800" x2="800" y1="100" y2="500" />
      <line x1="900" x2="900" y1="100" y2="500" />
      <line x1="1000" x2="1000" y1="100" y2="500" />
      <line x1="1100" x2="1100" y1="100" y2="500" />
      <line x1="1200" x2="1200" y1="100" y2="500" />
      <line x1="1300" x2="1300" y1="100" y2="500" />
      <line x1="1400" x2="1400" y1="100" y2="500" />
      <line x1="1500" x2="1500" y1="100" y2="500" />
      <line x1="1600" x2="1600" y1="100" y2="500" />
      <line x1="1700" x2="1700" y1="100" y2="500" />
      <line x1="1800" x2="1800" y1="100" y2="500" />
      <line x1="1900" x2="1900" y1="100" y2="500" />
      <line x1="2000" x2="2000" y1="100" y2="500" />
      <line x1="2100" x2="2100" y1="100" y2="500" />
      <line x1="2200" x2="2200" y1="100" y2="500" />
      <line x1="2300" x2="2300" y1="100" y2="500" />
      <line x1="100" x2="2300" y1="100" y2="100" />
      <line x1="100" x2="2300" y1="200" y2="200" />
      <line x1="100" x2="2300" y1="300" y2="300" />
      <line x1="100" x2="2300" y1="400" y2="400" />
      <line x1="100" x2="2300" y1="500" y2="500" />
    </g>
    <g stroke="black" stroke-width="3">
      <line x1="1500" y1="100" x2="700" y2="200" />
      <line x1="1500" y1="100" x2="2300" y2="200" />
      <line x1="700" y1="200" x2="300" y2="300" />
      <line x1="700" y1="200" x2="1100" y2="300" />
      <line x1="300" y1="300" x2="100" y2="400" />
      <line x1="300" y1="300" x2="500" y2="400" />
      <line x1="500" y1="400" x2="400" y2="500" />
      <line x1="500" y1="400" x2="600" y2="500" />
      <line x1="2300" y1="200" x2="1900" y2="300" />
      <line x1="1900" y1="300" x2="2100" y2="400" />
    </g>
    <g>
      <g fill="white" stroke="black" stroke-width="3">
        <circle r="40.0" cx="1500" cy="100" />
        <circle r="40.0" cx="700" cy="200" />
        <circle r="40.0" cx="300" cy="300" />
        <circle r="40.0" cx="100" cy="400" />
        <circle r="40.0" cx="500" cy="400" />
        <circle r="40.0" cx="400" cy="500" />
        <circle r="40.0" cx="600" cy="500" />
        <circle r="40.0" cx="1100" cy="300" />
        <circle r="40.0" cx="2300" cy="200" />
        <circle r="40.0" cx="1900" cy="300" />
        <circle r="40.0" cx="2100" cy="400" />
      </g>
      <g>
        <text x="1500" y="100">n</text>
        <text x="700" y="200">k</text>
        <text x="300" y="300">c</text>
        <text x="100" y="400">a</text>
        <text x="500" y="400">e</text>
        <text x="400" y="500">d</text>
        <text x="600" y="500">g</text>
        <text x="1100" y="300">m</text>
        <text x="2300" y="200">u</text>
        <text x="1900" y="300">p</text>
        <text x="2100" y="400">q</text>
      </g>
    </g>
  </g>
</svg>