<svg version="1.1"
     baseProfile="full"
     width="650" height="350"
     xmlns="http://www.w3.org/2000/svg">

  <g font-family="sans-serif"
     font-size="40"
     dominant-baseline="central"
     text-anchor="middle"
     transform="scale(0.5)">
    <g>
      <text x="30" y="100">1</text>
      <text x="30" y="200">2</text>
      <text x="30" y="300">3</text>
      <text x="30" y="400">4</text>
      <text x="30" y="500">5</text>
      <text x="30" y="600">6</text>

      <text x="100" y="30">1</text>
      <text x="200" y="30">2</text>
      <text x="300" y="30">3</text>
      <text x="400" y="30">4</text>
      <text x="500" y="30">5</text>
      <text x="600" y="30">6</text>
      <text x="700" y="30">7</text>
      <text x="800" y="30">8</text>
      <text x="900" y="30">9</text>
      <text x="1000" y="30">10</text>
      <text x="1100" y="30">11</text>
      <text x="1200" y="30">12</text>
    </g>

    <g stroke="black">
      <line x1="100" x2="1200" y1="100" y2="100" />
      <line x1="100" x2="1200" y1="200" y2="200" />
      <line x1="100" x2="1200" y1="300" y2="300" />
      <line x1="100" x2="1200" y1="400" y2="400" />
      <line x1="100" x2="1200" y1="500" y2="500" />
      <line x1="100" x2="1200" y1="600" y2="600" />

      <line x1="100" x2="100" y1="100" y2="600" />
      <line x1="200" x2="200" y1="100" y2="600" />
      <line x1="300" x2="300" y1="100" y2="600" />
      <line x1="400" x2="400" y1="100" y2="600" />
      <line x1="500" x2="500" y1="100" y2="600" />
      <line x1="600" x2="600" y1="100" y2="600" />
      <line x1="700" x2="700" y1="100" y2="600" />
      <line x1="800" x2="800" y1="100" y2="600" />
      <line x1="900" x2="900" y1="100" y2="600" />
      <line x1="1000" x2="1000" y1="100" y2="600" />
      <line x1="1100" x2="1100" y1="100" y2="600" />
      <line x1="1200" x2="1200" y1="100" y2="600" />
    </g>

    <g stroke="black" stroke-width="3">
      <line x1="800" y1="100" x2="600" y2="200" />
      <line x1="800" y1="100" x2="1200" y2="200" />
      <line x1="600" y1="200" x2="200" y2="300" />
      <line x1="600" y1="200" x2="700" y2="300" />
      <line x1="1200" y1="200" x2="900" y2="300" />
      <line x1="200" y1="300" x2="100" y2="400" />
      <line x1="200" y1="300" x2="500" y2="400" />
      <line x1="900" y1="300" x2="1100" y2="400" />
      <line x1="500" y1="400" x2="400" y2="500" />
      <line x1="400" y1="500" x2="300" y2="600" />
    </g>

    <g fill="white" stroke="black" stroke-width="3">
      <circle r="40" cx="800" cy="100" />
      <circle r="40" cx="600" cy="200" />
      <circle r="40" cx="1200" cy="200" />
      <circle r="40" cx="200" cy="300" />
      <circle r="40" cx="700" cy="300" />
      <circle r="40" cx="900" cy="300" />
      <circle r="40" cx="100" cy="400" />
      <circle r="40" cx="500" cy="400" />
      <circle r="40" cx="1100" cy="400" />
      <circle r="40" cx="400" cy="500" />
      <circle r="40" cx="300" cy="600" />
    </g>

    <g>
       <text x="800" y="100">n</text>
       <text x="600" y="200">k</text>
       <text x="1200" y="200">u</text>
       <text x="200" y="300">c</text>
       <text x="700" y="300">m</text>
       <text x="900" y="300">p</text>
       <text x="100" y="400">a</text>
       <text x="500" y="400">h</text>
       <text x="1100" y="400">s</text>
       <text x="400" y="500">g</text>
       <text x="300" y="600">e</text>
    </g>
  </g>
</svg>
