<?xml version="1.0" encoding="UTF-8" standalone="no"?>
<!DOCTYPE svg PUBLIC "-//W3C//DTD SVG 1.1//EN"
 "http://www.w3.org/Graphics/SVG/1.1/DTD/svg11.dtd">
<!-- Generated by graphviz version 2.43.0 (0)
 -->
<!-- Title: G Pages: 1 -->
<svg width="180pt" height="188pt"
 viewBox="0.00 0.00 180.45 188.00" xmlns="http://www.w3.org/2000/svg" xmlns:xlink="http://www.w3.org/1999/xlink">
<g id="graph0" class="graph" transform="scale(1 1) rotate(0) translate(4 184)">
<title>G</title>
<polygon fill="white" stroke="transparent" points="-4,4 -4,-184 176.45,-184 176.45,4 -4,4"/>
<!-- 1 -->
<g id="node1" class="node">
<title>1</title>
<ellipse fill="none" stroke="black" cx="109.45" cy="-162" rx="27" ry="18"/>
<text text-anchor="middle" x="109.45" y="-158.3" font-family="Times,serif" font-size="14.00">1</text>
</g>
<!-- l2_1 -->
<g id="node2" class="node">
<title>l2_1</title>
<ellipse fill="none" stroke="black" cx="73.45" cy="-90" rx="27" ry="18"/>
<text text-anchor="middle" x="73.45" y="-86.3" font-family="Times,serif" font-size="14.00">2</text>
</g>
<!-- 1&#45;&gt;l2_1 -->
<g id="edge1" class="edge">
<title>1&#45;&gt;l2_1</title>
<path fill="none" stroke="black" d="M101.1,-144.76C96.74,-136.28 91.3,-125.71 86.41,-116.2"/>
<polygon fill="black" stroke="black" points="89.44,-114.44 81.75,-107.15 83.21,-117.64 89.44,-114.44"/>
</g>
<!-- l2_2 -->
<g id="node3" class="node">
<title>l2_2</title>
<ellipse fill="none" stroke="black" cx="145.45" cy="-90" rx="27" ry="18"/>
<text text-anchor="middle" x="145.45" y="-86.3" font-family="Times,serif" font-size="14.00">2</text>
</g>
<!-- 1&#45;&gt;l2_2 -->
<g id="edge2" class="edge">
<title>1&#45;&gt;l2_2</title>
<path fill="none" stroke="black" d="M117.8,-144.76C122.16,-136.28 127.59,-125.71 132.49,-116.2"/>
<polygon fill="black" stroke="black" points="135.68,-117.64 137.14,-107.15 129.46,-114.44 135.68,-117.64"/>
</g>
<!-- null0 -->
<!-- l2_1&#45;&gt;null0 -->
<!-- 4 -->
<g id="node5" class="node">
<title>4</title>
<ellipse fill="none" stroke="black" cx="113.45" cy="-18" rx="27" ry="18"/>
<text text-anchor="middle" x="113.45" y="-14.3" font-family="Times,serif" font-size="14.00">4</text>
</g>
<!-- l2_1&#45;&gt;4 -->
<g id="edge4" class="edge">
<title>l2_1&#45;&gt;4</title>
<path fill="none" stroke="black" d="M82.72,-72.76C87.62,-64.19 93.74,-53.49 99.22,-43.9"/>
<polygon fill="black" stroke="black" points="102.3,-45.57 104.22,-35.15 96.22,-42.09 102.3,-45.57"/>
</g>
</g>
</svg>
