<?xml version="1.0" encoding="UTF-8" standalone="no"?>
<!DOCTYPE svg PUBLIC "-//W3C//DTD SVG 1.1//EN"
 "http://www.w3.org/Graphics/SVG/1.1/DTD/svg11.dtd">
<!-- Generated by graphviz version 2.43.0 (0)
 -->
<!-- Title: %3 Pages: 1 -->
<svg width="309pt" height="289pt"
 viewBox="0.00 0.00 309.07 288.85" xmlns="http://www.w3.org/2000/svg" xmlns:xlink="http://www.w3.org/1999/xlink">
<g id="graph0" class="graph" transform="scale(1 1) rotate(0) translate(4 284.85)">
<title>%3</title>
<polygon fill="white" stroke="transparent" points="-4,4 -4,-284.85 305.07,-284.85 305.07,4 -4,4"/>
<!-- 1 -->
<g id="node1" class="node">
<title>1</title>
<ellipse fill="none" stroke="black" cx="81.75" cy="-262.85" rx="27" ry="18"/>
<text text-anchor="middle" x="81.75" y="-259.15" font-family="Times,serif" font-size="14.00">1</text>
</g>
<!-- 2 -->
<g id="node2" class="node">
<title>2</title>
<ellipse fill="none" stroke="black" cx="136.91" cy="-206.15" rx="27" ry="18"/>
<text text-anchor="middle" x="136.91" y="-202.45" font-family="Times,serif" font-size="14.00">2</text>
</g>
<!-- 1&#45;&#45;2 -->
<g id="edge1" class="edge">
<title>1&#45;&#45;2</title>
<path fill="none" stroke="black" d="M100.2,-249.58C106.23,-244.18 112.33,-237.02 123.93,-222.5"/>
</g>
<!-- 3 -->
<g id="node8" class="node">
<title>3</title>
<ellipse fill="none" stroke="black" cx="27" cy="-202.7" rx="27" ry="18"/>
<text text-anchor="middle" x="27" y="-199" font-family="Times,serif" font-size="14.00">3</text>
</g>
<!-- 1&#45;&#45;3 -->
<g id="edge7" class="edge">
<title>1&#45;&#45;3</title>
<path fill="none" stroke="black" d="M59.99,-251.95C45.77,-244 40.94,-237.73 33.8,-220.27"/>
</g>
<!-- 4 -->
<g id="node3" class="node">
<title>4</title>
<ellipse fill="none" stroke="black" cx="78.06" cy="-143.15" rx="27" ry="18"/>
<text text-anchor="middle" x="78.06" y="-139.45" font-family="Times,serif" font-size="14.00">4</text>
</g>
<!-- 2&#45;&#45;4 -->
<g id="edge2" class="edge">
<title>2&#45;&#45;4</title>
<path fill="none" stroke="black" d="M115.25,-195.36C97.85,-186.01 92.6,-179.72 84.87,-160.81"/>
</g>
<!-- 8 -->
<g id="node7" class="node">
<title>8</title>
<ellipse fill="none" stroke="black" cx="209.47" cy="-168.53" rx="27" ry="18"/>
<text text-anchor="middle" x="209.47" y="-164.83" font-family="Times,serif" font-size="14.00">8</text>
</g>
<!-- 2&#45;&#45;8 -->
<g id="edge10" class="edge">
<title>2&#45;&#45;8</title>
<path fill="none" stroke="black" d="M163.66,-203.05C177.54,-200.56 184.25,-196.31 195.55,-184.22"/>
</g>
<!-- 5 -->
<g id="node4" class="node">
<title>5</title>
<ellipse fill="none" stroke="black" cx="72.94" cy="-60.84" rx="27" ry="18"/>
<text text-anchor="middle" x="72.94" y="-57.14" font-family="Times,serif" font-size="14.00">5</text>
</g>
<!-- 4&#45;&#45;5 -->
<g id="edge3" class="edge">
<title>4&#45;&#45;5</title>
<path fill="none" stroke="black" d="M71.79,-125.27C63.74,-101.68 62.55,-93.49 66.85,-78.68"/>
</g>
<!-- 6 -->
<g id="node5" class="node">
<title>6</title>
<ellipse fill="none" stroke="black" cx="129.36" cy="-94.44" rx="27" ry="18"/>
<text text-anchor="middle" x="129.36" y="-90.74" font-family="Times,serif" font-size="14.00">6</text>
</g>
<!-- 4&#45;&#45;6 -->
<g id="edge9" class="edge">
<title>4&#45;&#45;6</title>
<path fill="none" stroke="black" d="M85.84,-125.78C90.79,-116.27 95.64,-111.66 107.4,-105.3"/>
</g>
<!-- 5&#45;&#45;6 -->
<g id="edge4" class="edge">
<title>5&#45;&#45;6</title>
<path fill="none" stroke="black" d="M96.06,-70.51C100.01,-72.93 104.65,-76.17 111.13,-80.91"/>
</g>
<!-- 10 -->
<g id="node9" class="node">
<title>10</title>
<ellipse fill="none" stroke="black" cx="147.34" cy="-18" rx="27" ry="18"/>
<text text-anchor="middle" x="147.34" y="-14.3" font-family="Times,serif" font-size="14.00">10</text>
</g>
<!-- 5&#45;&#45;10 -->
<g id="edge11" class="edge">
<title>5&#45;&#45;10</title>
<path fill="none" stroke="black" d="M86.21,-44.98C99.12,-30.09 106.04,-25.08 120.88,-21.92"/>
</g>
<!-- 7 -->
<g id="node6" class="node">
<title>7</title>
<ellipse fill="none" stroke="black" cx="202.89" cy="-83.3" rx="27" ry="18"/>
<text text-anchor="middle" x="202.89" y="-79.6" font-family="Times,serif" font-size="14.00">7</text>
</g>
<!-- 6&#45;&#45;7 -->
<g id="edge5" class="edge">
<title>6&#45;&#45;7</title>
<path fill="none" stroke="black" d="M151.5,-84.03C162.57,-79.2 169.31,-77.4 177.12,-77.83"/>
</g>
<!-- 7&#45;&#45;8 -->
<g id="edge6" class="edge">
<title>7&#45;&#45;8</title>
<path fill="none" stroke="black" d="M211.55,-100.41C220.43,-119.07 220.68,-126.97 214.38,-150.83"/>
</g>
<!-- 9 -->
<g id="node10" class="node">
<title>9</title>
<ellipse fill="none" stroke="black" cx="274.07" cy="-52.38" rx="27" ry="18"/>
<text text-anchor="middle" x="274.07" y="-48.68" font-family="Times,serif" font-size="14.00">9</text>
</g>
<!-- 7&#45;&#45;9 -->
<g id="edge13" class="edge">
<title>7&#45;&#45;9</title>
<path fill="none" stroke="black" d="M224.34,-71.91C235.88,-65.84 243.11,-62.22 249.14,-59.71"/>
</g>
<!-- 3&#45;&#45;4 -->
<g id="edge8" class="edge">
<title>3&#45;&#45;4</title>
<path fill="none" stroke="black" d="M35.21,-185.23C39.94,-177.12 46.07,-170.91 61.3,-157.61"/>
</g>
<!-- 10&#45;&#45;7 -->
<g id="edge12" class="edge">
<title>10&#45;&#45;7</title>
<path fill="none" stroke="black" d="M168.6,-29.51C179.15,-36.59 184.29,-44.59 194.7,-66.09"/>
</g>
</g>
</svg>
