<?xml version="1.0" encoding="UTF-8" standalone="no"?>
<!DOCTYPE svg PUBLIC "-//W3C//DTD SVG 1.1//EN"
 "http://www.w3.org/Graphics/SVG/1.1/DTD/svg11.dtd">
<!-- Generated by graphviz version 2.43.0 (0)
 -->
<!-- Title: %3 Pages: 1 -->
<svg width="503pt" height="413pt"
 viewBox="0.00 0.00 502.85 412.63" xmlns="http://www.w3.org/2000/svg" xmlns:xlink="http://www.w3.org/1999/xlink">
<g id="graph0" class="graph" transform="scale(1 1) rotate(0) translate(4 408.63)">
<title>%3</title>
<polygon fill="white" stroke="transparent" points="-4,4 -4,-408.63 498.85,-408.63 498.85,4 -4,4"/>
<!-- 1 -->
<g id="node1" class="node">
<title>1</title>
<ellipse fill="#235fa4" stroke="black" cx="175.82" cy="-386.63" rx="27" ry="18"/>
<text text-anchor="middle" x="175.82" y="-382.93" font-family="Times,serif" font-size="14.00" fill="white">1</text>
</g>
<!-- 2 -->
<g id="node2" class="node">
<title>2</title>
<ellipse fill="#ff4242" stroke="black" cx="347.07" cy="-174.88" rx="27" ry="18"/>
<text text-anchor="middle" x="347.07" y="-171.18" font-family="Times,serif" font-size="14.00" fill="white">2</text>
</g>
<!-- 1&#45;&#45;2 -->
<g id="edge1" class="edge">
<title>1&#45;&#45;2</title>
<path fill="none" stroke="black" d="M188.69,-370.72C220.43,-331.48 302.15,-230.42 334.05,-190.98"/>
</g>
<!-- 5 -->
<g id="node5" class="node">
<title>5</title>
<ellipse fill="#6fde6e" stroke="black" cx="325.1" cy="-383.67" rx="27" ry="18"/>
<text text-anchor="middle" x="325.1" y="-379.97" font-family="Times,serif" font-size="14.00" fill="white">5</text>
</g>
<!-- 1&#45;&#45;5 -->
<g id="edge11" class="edge">
<title>1&#45;&#45;5</title>
<path fill="none" stroke="black" d="M202.85,-386.1C229.82,-385.56 271.03,-384.74 298.01,-384.2"/>
</g>
<!-- 6 -->
<g id="node6" class="node">
<title>6</title>
<ellipse fill="#ff4242" stroke="black" cx="27" cy="-246.35" rx="27" ry="18"/>
<text text-anchor="middle" x="27" y="-242.65" font-family="Times,serif" font-size="14.00" fill="white">6</text>
</g>
<!-- 1&#45;&#45;6 -->
<g id="edge12" class="edge">
<title>1&#45;&#45;6</title>
<path fill="none" stroke="black" d="M160.17,-371.89C131.67,-345.01 71.57,-288.36 42.88,-261.33"/>
</g>
<!-- 3 -->
<g id="node3" class="node">
<title>3</title>
<ellipse fill="#235fa4" stroke="black" cx="382.37" cy="-18" rx="27" ry="18"/>
<text text-anchor="middle" x="382.37" y="-14.3" font-family="Times,serif" font-size="14.00" fill="white">3</text>
</g>
<!-- 2&#45;&#45;3 -->
<g id="edge2" class="edge">
<title>2&#45;&#45;3</title>
<path fill="none" stroke="black" d="M351.12,-156.89C357.89,-126.79 371.44,-66.55 378.26,-36.27"/>
</g>
<!-- 4 -->
<g id="node4" class="node">
<title>4</title>
<ellipse fill="#ff4242" stroke="black" cx="467.85" cy="-237.03" rx="27" ry="18"/>
<text text-anchor="middle" x="467.85" y="-233.33" font-family="Times,serif" font-size="14.00" fill="white">4</text>
</g>
<!-- 3&#45;&#45;4 -->
<g id="edge3" class="edge">
<title>3&#45;&#45;4</title>
<path fill="none" stroke="black" d="M389.22,-35.55C405.23,-76.56 444.93,-178.3 460.97,-219.39"/>
</g>
<!-- 8 -->
<g id="node8" class="node">
<title>8</title>
<ellipse fill="#6fde6e" stroke="black" cx="102.58" cy="-23.93" rx="27" ry="18"/>
<text text-anchor="middle" x="102.58" y="-20.23" font-family="Times,serif" font-size="14.00" fill="white">8</text>
</g>
<!-- 3&#45;&#45;8 -->
<g id="edge13" class="edge">
<title>3&#45;&#45;8</title>
<path fill="none" stroke="black" d="M355.29,-18.57C301.8,-19.71 183.18,-22.22 129.68,-23.36"/>
</g>
<!-- 4&#45;&#45;5 -->
<g id="edge4" class="edge">
<title>4&#45;&#45;5</title>
<path fill="none" stroke="black" d="M453.12,-252.17C425.76,-280.27 367.43,-340.19 339.97,-368.39"/>
</g>
<!-- 9 -->
<g id="node9" class="node">
<title>9</title>
<ellipse fill="#6fde6e" stroke="black" cx="247.31" cy="-236.49" rx="27" ry="18"/>
<text text-anchor="middle" x="247.31" y="-232.79" font-family="Times,serif" font-size="14.00" fill="white">9</text>
</g>
<!-- 4&#45;&#45;9 -->
<g id="edge14" class="edge">
<title>4&#45;&#45;9</title>
<path fill="none" stroke="black" d="M440.81,-236.96C398.48,-236.86 317.04,-236.66 274.57,-236.56"/>
</g>
<!-- 10 -->
<g id="node10" class="node">
<title>10</title>
<ellipse fill="#ff4242" stroke="black" cx="144.91" cy="-178.92" rx="27" ry="18"/>
<text text-anchor="middle" x="144.91" y="-175.22" font-family="Times,serif" font-size="14.00" fill="white">10</text>
</g>
<!-- 5&#45;&#45;10 -->
<g id="edge5" class="edge">
<title>5&#45;&#45;10</title>
<path fill="none" stroke="black" d="M311.26,-367.94C277.72,-329.83 192.39,-232.86 158.8,-194.7"/>
</g>
<!-- 6&#45;&#45;9 -->
<g id="edge8" class="edge">
<title>6&#45;&#45;9</title>
<path fill="none" stroke="black" d="M54.01,-245.15C96.3,-243.25 177.65,-239.61 220.07,-237.71"/>
</g>
<!-- 7 -->
<g id="node7" class="node">
<title>7</title>
<ellipse fill="#235fa4" stroke="black" cx="243.25" cy="-49.76" rx="27" ry="18"/>
<text text-anchor="middle" x="243.25" y="-46.06" font-family="Times,serif" font-size="14.00" fill="white">7</text>
</g>
<!-- 7&#45;&#45;2 -->
<g id="edge10" class="edge">
<title>7&#45;&#45;2</title>
<path fill="none" stroke="black" d="M256.39,-65.61C276.26,-89.55 313.71,-134.68 333.7,-158.77"/>
</g>
<!-- 7&#45;&#45;10 -->
<g id="edge15" class="edge">
<title>7&#45;&#45;10</title>
<path fill="none" stroke="black" d="M230.99,-65.86C212.15,-90.61 176.26,-137.75 157.32,-162.62"/>
</g>
<!-- 8&#45;&#45;6 -->
<g id="edge7" class="edge">
<title>8&#45;&#45;6</title>
<path fill="none" stroke="black" d="M96.53,-41.76C82.34,-83.51 47.09,-187.22 32.98,-228.75"/>
</g>
<!-- 9&#45;&#45;7 -->
<g id="edge9" class="edge">
<title>9&#45;&#45;7</title>
<path fill="none" stroke="black" d="M246.91,-218.25C246.13,-182.46 244.41,-103.43 243.64,-67.81"/>
</g>
<!-- 10&#45;&#45;8 -->
<g id="edge6" class="edge">
<title>10&#45;&#45;8</title>
<path fill="none" stroke="black" d="M140.06,-161.14C131.94,-131.4 115.68,-71.9 107.51,-41.98"/>
</g>
</g>
</svg>
