<?xml version="1.0" encoding="UTF-8" standalone="no"?>
<!DOCTYPE svg PUBLIC "-//W3C//DTD SVG 1.1//EN"
 "http://www.w3.org/Graphics/SVG/1.1/DTD/svg11.dtd">
<!-- Generated by graphviz version 2.43.0 (0)
 -->
<!-- Title: %3 Pages: 1 -->
<svg width="183pt" height="177pt"
 viewBox="0.00 0.00 183.10 176.62" xmlns="http://www.w3.org/2000/svg" xmlns:xlink="http://www.w3.org/1999/xlink">
<g id="graph0" class="graph" transform="scale(1 1) rotate(0) translate(4 172.62)">
<title>%3</title>
<polygon fill="white" stroke="transparent" points="-4,4 -4,-172.62 179.1,-172.62 179.1,4 -4,4"/>
<!-- 1 -->
<g id="node1" class="node">
<title>1</title>
<ellipse fill="none" stroke="black" cx="27" cy="-95.17" rx="27" ry="18"/>
<text text-anchor="middle" x="27" y="-91.47" font-family="Times,serif" font-size="14.00">1</text>
</g>
<!-- 2 -->
<g id="node2" class="node">
<title>2</title>
<ellipse fill="none" stroke="black" cx="61.91" cy="-31.72" rx="27" ry="18"/>
<text text-anchor="middle" x="61.91" y="-28.02" font-family="Times,serif" font-size="14.00">2</text>
</g>
<!-- 1&#45;&#45;2 -->
<g id="edge1" class="edge">
<title>1&#45;&#45;2</title>
<path fill="none" stroke="black" d="M36.36,-78.17C41.37,-69.06 47.52,-57.88 52.53,-48.77"/>
</g>
<!-- 4 -->
<g id="node4" class="node">
<title>4</title>
<ellipse fill="none" stroke="black" cx="103.66" cy="-89.03" rx="27" ry="18"/>
<text text-anchor="middle" x="103.66" y="-85.33" font-family="Times,serif" font-size="14.00">4</text>
</g>
<!-- 1&#45;&#45;4 -->
<g id="edge5" class="edge">
<title>1&#45;&#45;4</title>
<path fill="none" stroke="black" d="M53.81,-93.02C61.24,-92.43 69.3,-91.78 76.73,-91.19"/>
</g>
<!-- 3 -->
<g id="node3" class="node">
<title>3</title>
<ellipse fill="none" stroke="black" cx="132.98" cy="-18" rx="27" ry="18"/>
<text text-anchor="middle" x="132.98" y="-14.3" font-family="Times,serif" font-size="14.00">3</text>
</g>
<!-- 2&#45;&#45;3 -->
<g id="edge2" class="edge">
<title>2&#45;&#45;3</title>
<path fill="none" stroke="black" d="M87.97,-26.69C94.15,-25.5 100.75,-24.22 106.93,-23.03"/>
</g>
<!-- 2&#45;&#45;4 -->
<g id="edge6" class="edge">
<title>2&#45;&#45;4</title>
<path fill="none" stroke="black" d="M73.76,-47.99C79.36,-55.67 86.02,-64.82 91.63,-72.52"/>
</g>
<!-- 3&#45;&#45;4 -->
<g id="edge3" class="edge">
<title>3&#45;&#45;4</title>
<path fill="none" stroke="black" d="M125.73,-35.56C121.19,-46.57 115.35,-60.7 110.82,-71.68"/>
</g>
<!-- 5 -->
<g id="node5" class="node">
<title>5</title>
<ellipse fill="none" stroke="black" cx="148.1" cy="-150.62" rx="27" ry="18"/>
<text text-anchor="middle" x="148.1" y="-146.92" font-family="Times,serif" font-size="14.00">5</text>
</g>
<!-- 4&#45;&#45;5 -->
<g id="edge4" class="edge">
<title>4&#45;&#45;5</title>
<path fill="none" stroke="black" d="M115.57,-105.54C121.95,-114.37 129.78,-125.23 136.16,-134.07"/>
</g>
</g>
</svg>
